<svg width="226" height="192" viewBox="0 0 226 192" fill="none" xmlns="http://www.w3.org/2000/svg">
<mask id="mask0_1_5728" style="mask-type:alpha" maskUnits="userSpaceOnUse" x="0" y="0" width="227" height="192">
<path d="M48.2542 0L226.111 71.719L177.857 191.385L-4.83096e-05 119.666L48.2542 0Z" fill="white"/>
</mask>
<g mask="url(#mask0_1_5728)">
<path fill-rule="evenodd" clip-rule="evenodd" d="M209.991 99.0073C209.966 98.9903 209.942 98.9795 209.917 98.9586C209.86 98.9093 209.809 98.8537 209.764 98.7931C209.887 98.8172 209.997 98.8523 210.01 98.9175C210.016 98.9471 210.007 98.9774 209.991 99.0073ZM220.762 84.3008L220.767 84.1108L220.745 83.9226C220.684 83.3743 220.297 81.5438 217.932 81.0203C217.546 80.9347 217.156 80.8564 216.768 80.7777L216.547 80.7331C215.622 80.5454 211.468 79.7777 210.191 79.5864C209.858 79.5356 209.221 79.4244 208.485 79.2954C206.341 78.9187 204.765 78.6493 204.034 78.6059C203.675 78.5848 203.274 78.5319 202.852 78.4759C202.595 78.4418 202.339 78.4082 202.083 78.3789C201.164 78.2753 200.363 78.4591 199.565 78.9573C199.325 79.1083 199.099 79.2797 198.888 79.4695C198.735 79.1803 198.56 78.9038 198.363 78.6425C197.52 77.5382 195.939 76.8945 195.872 76.8673C195.257 76.6202 193.767 76.1773 193.159 76.0845C192.602 75.999 191.288 75.8828 190.308 76.0589C189.549 76.1956 187.525 76.9394 186.629 77.6956C186.469 77.8302 186.316 77.9718 186.171 78.1187C186.039 77.7681 185.875 77.4302 185.682 77.1093C184.822 75.6904 183.485 75.068 182.551 74.7221C182.272 74.6186 181.849 74.4598 181.35 74.3907C181.219 74.3698 180.727 74.2809 180.558 74.2428C180.467 74.2227 180.331 74.1944 179.952 74.1271C179.662 73.467 179.361 72.8121 179.048 72.1625L179.782 71.5215L178.978 69.652C176.663 64.2676 173.036 59.8811 169.52 55.8497C159.482 44.3405 146.109 37.4864 129.784 35.4778C121.919 34.5097 111.013 36.1334 100.609 39.8199C95.6534 41.576 84.0082 46.2876 80.5605 52.8098C77.4525 55.6112 74.6318 58.7165 72.1403 62.0794C71.3378 61.7042 70.0788 61.5014 68.5437 62.5793L68.4987 62.6099C68.2148 62.8058 67.987 62.9485 67.7817 63.0579C67.3094 63.3094 66.9407 63.469 66.6413 63.5516L66.5641 63.3917C65.5147 61.2013 64.2798 59.3106 62.8952 57.7723C62.2531 57.0584 61.5897 56.364 60.9059 55.6901C60.1861 54.9823 59.3609 54.4859 58.6984 54.0872L58.4703 53.95C57.596 53.4186 56.7348 53.1319 55.9752 52.8778C55.7456 52.8012 55.5157 52.7252 55.2886 52.6406C54.4535 52.3289 53.5754 52.091 52.5264 51.8929C50.0442 51.4209 47.6273 51.5829 45.3704 51.822C44.0196 51.9657 42.7969 52.1102 41.5181 52.4339C40.3073 52.7401 39.1211 53.1365 37.9692 53.6199C35.5707 54.6288 33.4448 55.9744 31.4739 57.265C30.9732 57.5935 30.3918 57.9827 29.8308 58.4539C29.3926 58.8221 29.0162 59.2042 28.6835 59.5419C28.5802 59.6465 28.4773 59.7518 28.3706 59.8578C28.1359 60.0902 27.8899 60.3126 27.6459 60.5351C27.3711 60.7841 27.0965 61.0346 26.8312 61.2945C25.5216 62.5747 24.0603 64.3999 22.4867 66.7207C21.4816 68.2037 20.7828 69.5096 20.0412 70.8921C19.8432 71.2626 19.639 71.6431 19.4215 72.0412C18.2759 74.1326 17.3736 76.3484 16.7322 78.6451C16.4024 79.8332 16.1176 81.0839 15.8849 82.364C15.8478 82.5663 15.7514 83.0257 15.6454 83.535C15.427 84.5849 15.2791 85.3013 15.22 85.677C15.0141 86.9819 14.9982 88.2325 14.9997 89.5054C15.0014 90.8243 15.0477 91.9017 15.1457 92.894C15.4177 95.6444 16.1352 98.1652 17.2781 100.386C17.8262 101.45 18.3807 102.38 18.9718 103.228C19.7039 104.279 20.4431 105.299 21.4343 106.23C23.3425 108.022 25.4346 109.167 27.2297 110.051C29.2432 111.042 31.4698 111.695 34.0323 112.053C34.634 112.135 35.2363 112.211 35.8392 112.273C36.162 112.307 36.4624 112.306 38.2987 112.156C38.2965 112.161 38.2946 112.166 38.2915 112.17L38.2623 112.229C38.0939 112.557 37.7433 113.24 37.7571 114.135C37.7787 115.602 38.6793 116.873 39.9982 117.298C40.1095 117.333 40.2493 117.371 40.4115 117.399C41.247 117.546 42.6902 117.459 43.992 115.701L44.4699 115.058C45.0952 114.219 46.1483 112.805 46.6557 112.118C47.2256 111.346 47.7084 110.59 48.1749 109.858C48.364 109.562 48.5541 109.263 48.7528 108.961C48.917 108.711 49.7452 107.62 50.1437 107.095L50.432 106.714C50.6408 107.388 50.9053 108.043 51.2227 108.673C51.593 109.412 52.1811 110.505 53.0048 111.472C53.9005 112.522 54.895 113.291 55.6629 113.844C56.678 114.574 57.5464 115.108 58.3964 115.524C58.8183 115.73 59.7263 116.137 60.4501 116.344L60.8961 116.475C61.3444 116.609 61.7938 116.74 62.2442 116.867C63.1589 120.037 64.3214 123.13 65.721 126.117C67.6625 131.882 71.074 137.378 76.4453 143.397C85.9884 154.09 97.577 160.671 110.984 163.03C113.774 163.52 116.644 163.829 119.589 163.953C136.619 164.672 151.76 159.216 164.594 147.738C167.159 145.443 170.066 142.843 171.431 138.709L171.439 138.683C172.137 137.813 172.811 136.925 173.461 136.019C176.052 136.452 179.298 136.982 180.279 137.1C180.915 137.176 181.535 137.256 182.118 137.375C182.431 137.44 182.744 137.494 183.056 137.546C183.451 137.613 183.82 137.674 184.131 137.758C185.129 138.027 186.137 138.256 187.153 138.445C188.053 138.628 188.801 138.498 189.387 138.276C189.558 138.463 189.742 138.638 189.946 138.792C190.518 139.217 191.181 139.501 191.883 139.62C193.502 139.905 195.278 139.374 196.388 138.114C197.406 136.957 197.903 135.492 197.721 134.193C197.564 133.074 196.942 132.118 195.97 131.498C195.513 131.208 195.008 131.001 194.479 130.886C195.758 128.693 196.446 127.257 196.525 126.613C196.687 125.267 195.982 124.024 194.826 123.473C193.46 122.678 191.539 122.743 190.065 124.643C189.36 125.383 185.674 127.9 184.6 128.428C183.957 128.747 183.296 129.028 182.621 129.27C182.146 129.439 181.772 129.549 181.486 129.54C180.995 129.525 180.449 129.438 179.787 129.327C179.54 129.285 179.228 129.234 178.907 129.183L178.943 129.094C179.049 128.822 179.225 128.498 179.411 128.156C179.497 127.998 179.582 127.84 179.664 127.682C179.871 127.294 181.278 124.988 182.208 123.462L182.844 122.418C182.867 122.864 182.98 123.3 183.176 123.7C183.382 124.129 183.681 124.507 184.05 124.806C184.419 125.106 184.849 125.32 185.311 125.434C186.293 125.677 187.344 125.452 188.2 124.82C189.126 124.134 189.668 123.204 190.064 122.526C190.135 122.405 190.203 122.286 190.272 122.177C190.551 121.731 190.834 121.29 191.118 120.848C191.301 120.564 191.484 120.28 191.665 119.994C191.893 119.635 192.15 119.268 192.423 118.879C192.997 118.059 193.649 117.127 194.155 116.064L194.176 116.021C194.447 115.455 195.166 113.954 194.378 112.424C194.179 112.035 193.899 111.692 193.558 111.418C193.216 111.145 192.821 110.947 192.398 110.837C191.699 110.657 191.071 110.746 190.567 110.914C190.781 110.624 190.962 110.382 191.093 110.205C191.305 109.923 191.51 109.636 191.715 109.349C191.937 109.039 192.159 108.728 192.391 108.425C192.565 108.2 192.733 107.97 192.903 107.738C193.178 107.361 193.439 107.004 193.693 106.721C193.789 106.612 193.887 106.505 193.982 106.404L194.17 106.433C194.856 106.541 195.544 106.65 196.223 106.774C196.904 106.895 197.575 107.06 198.234 107.27C198.688 107.419 198.93 107.536 199.055 107.608C199.058 107.719 199.058 107.86 199.058 107.974L199.059 108.025C199.059 108.333 199.035 108.56 198.984 108.717C198.913 108.934 198.84 109.149 198.768 109.363C198.561 109.969 198.349 110.595 198.172 111.276L198.128 111.403C197.795 112.345 197.175 114.098 198.282 115.609C198.902 116.456 199.879 116.921 200.961 116.884C202.728 116.824 203.688 115.476 204.048 114.969C204.069 114.942 204.088 114.914 204.106 114.885C204.624 114.283 204.972 113.657 205.244 113.126C205.491 112.645 205.859 112.132 206.25 111.589C206.365 111.429 206.481 111.268 206.594 111.107C207.007 110.522 207.366 109.931 207.715 109.361L207.911 109.041C208.407 108.233 209.025 107.228 209.364 106.017C209.657 104.963 209.616 104.117 209.41 103.448C209.553 103.447 209.697 103.453 209.838 103.443C212.689 103.224 215.002 100.939 215.103 98.2253C215.124 97.5569 214.994 96.8925 214.722 96.2822C214.45 95.6718 214.043 95.1311 213.533 94.7008C212.989 94.2429 212.35 93.9124 211.663 93.7332C210.975 93.5541 210.256 93.5308 209.558 93.6652L209.557 93.6647C209.453 93.6856 209.351 93.7106 209.249 93.7398C209.5 93.3441 209.75 92.957 210.007 92.5866L210.205 92.299C210.303 92.1573 210.399 92.0166 210.498 91.8774C210.683 91.6148 210.864 91.3479 211.046 91.0809C211.3 90.7047 211.54 90.3505 211.784 90.0267C212.233 89.4291 212.625 88.8332 213.004 88.2567C213.138 88.0538 213.268 87.8539 213.399 87.66C213.484 87.8916 213.597 88.1129 213.736 88.3222C213.968 88.672 214.268 88.9706 214.62 89.1996C214.971 89.4286 215.365 89.5832 215.778 89.6539C216.346 89.7534 218.206 89.881 219.304 87.6157L219.312 87.5994C219.356 87.524 219.423 87.4207 219.498 87.3006C220.266 86.0757 220.739 85.2758 220.761 84.302L220.762 84.3008Z" fill="#FFFFFE"/>
<path fill-rule="evenodd" clip-rule="evenodd" d="M181.602 110.293C175.84 142.926 144.749 164.732 112.157 158.998C79.566 153.263 57.8171 122.16 63.5802 89.5267C69.3426 56.8938 100.434 35.0885 133.025 40.8234C165.616 46.5577 187.365 77.6604 181.603 110.293" fill="white"/>
</g>
<path fill-rule="evenodd" clip-rule="evenodd" d="M132.983 41.1413C130.087 40.855 127.271 40.358 124.45 40.3433C118.276 40.3104 119.024 39.6899 120.033 45.6643C120.056 45.7973 120.204 45.9084 120.374 46.1406C124.893 45.7501 130.307 47.95 132.984 41.1415L132.983 41.1413ZM116.721 40.3314L102.516 44.2642C103.677 45.7167 104.463 46.7603 105.319 47.7408C105.642 48.1106 106.187 48.6483 106.531 48.5809C110.283 47.8472 114.015 47.0079 117.907 46.1636L116.721 40.3314ZM132.127 46.2264C145.028 47.9221 156.48 52.4729 166.612 60.3339C165.583 58.8471 164.5 57.454 163.25 56.233C156.818 49.9479 149.168 45.75 140.63 43.0846C136.364 41.7542 135.216 42.1141 132.127 46.2264ZM82.5718 56.3781C84.2659 47.5633 112.82 36.7058 129.599 38.7423C144.562 40.5588 157.51 46.6373 167.527 58.1833C171.008 62.1951 174.39 66.3575 176.494 71.2941L175.755 71.9442C175.098 71.4258 174.349 70.9904 173.795 70.3773C162.832 58.234 149.24 51.0653 133.086 48.7629C132.325 48.6547 130.955 48.7989 130.813 49.1775C130.499 50.0204 130.479 51.2551 130.893 52.0231C131.577 53.2872 132.582 54.4421 133.661 55.4062C137.585 58.913 141.613 62.3014 145.561 65.7811C146.425 66.5422 147.121 67.494 147.895 68.3579L147.363 69.0398C146.759 68.7406 146.063 68.5499 145.565 68.1257C140.969 64.2128 136.386 60.2844 131.845 56.3078C129.585 54.3304 127.593 52.1547 128.294 48.4468C125.931 48.4831 123.856 48.3976 121.819 48.641C121.386 48.6933 120.728 49.9869 120.791 50.6451C121.162 54.5149 121.734 58.3634 122.192 62.2246C122.285 63.004 122.183 63.8079 122.17 64.6005L121.367 64.814C121.048 63.9876 120.583 63.187 120.434 62.3296C119.785 58.5759 119.18 54.8118 118.66 51.0363C118.439 49.4272 117.857 48.629 116.107 49.002C114.824 49.2754 113.49 49.2915 112.203 49.5507C110.688 49.8551 108.781 49.8689 107.826 50.8104C107.002 51.6226 107.277 53.5604 107.062 55.0003C106.742 57.1512 106.264 59.1964 103.2 60.3961C104.321 57.2764 105.832 54.7688 104.448 51.5332L90.3768 57.9649L89.7623 57.1269C90.4296 56.48 90.9953 55.6335 91.783 55.2203C95.0145 53.5256 98.3136 51.9598 101.59 50.3512C102.201 50.0514 102.821 49.7711 103.438 49.4818C101.558 45.5082 100.524 44.9218 97.1101 46.9816C93.071 49.4177 89.2957 52.3025 85.4426 55.044C84.6033 55.6403 83.9144 56.4511 83.1567 57.1639L82.5716 56.3787L82.5718 56.3781ZM130.189 121.371L135.383 158.364C149.003 155.259 159.837 148.269 168.942 138.197C167.826 141.576 165.351 143.821 162.909 146.007C150.687 156.95 136.343 162.19 119.99 161.507C103.572 160.821 89.8555 154.192 78.9254 141.931C73.7987 136.18 69.5012 129.893 67.798 122.052C74.9261 136.382 84.8135 147.882 99.8524 154.398C93.287 141.525 89.0929 135.604 88.224 121.118L89.2651 120.767C89.5535 121.534 90.0287 122.281 90.1027 123.068C91.3288 136.004 94.8089 140.547 100.923 151.891C102.618 155.036 104.847 156.82 108.441 157.62C115.904 159.28 123.343 160.04 130.962 159.147C133.017 158.906 133.689 158.272 133.374 156.091C131.886 145.763 130.554 135.412 129.192 125.065C129.039 123.895 129.045 122.703 128.977 121.52L130.189 121.371Z" fill="black"/>
<path fill-rule="evenodd" clip-rule="evenodd" d="M62.4766 65.5475C62.9842 66.6145 63.4617 67.7182 63.7735 68.8573C64.0315 69.7973 64.2253 70.7691 64.1797 71.7384C64.1678 72.0023 64.1344 73.0482 64.0995 73.3327C64.0508 73.7293 63.9881 74.1223 63.9115 74.5139C63.8289 74.9393 63.7489 75.365 63.673 75.791C63.6215 76.0807 63.5506 76.5184 63.9452 76.5995C64.3459 76.6825 64.5265 76.1519 64.6882 75.8767C64.9602 75.4157 65.2888 75.0435 65.6251 74.63C65.9256 74.2604 66.2224 73.8895 66.5229 73.5199C67.2568 72.6166 67.932 71.7035 68.6325 70.7742C69.2119 70.0077 71.0309 67.4538 71.218 66.9175C71.3558 66.5241 71.8535 66.01 71.4341 65.6321C71.0955 65.3278 70.7063 65.64 70.4119 65.8414C70.0908 66.062 69.7656 66.2692 69.4206 66.4509C68.4595 66.9584 67.4663 67.366 66.3629 67.3269C65.8976 67.3112 65.1059 67.1242 64.8999 66.6653C64.7265 66.2786 64.539 65.8996 64.3538 65.518C63.4937 63.7401 62.4313 62.0282 61.0992 60.5577C60.4904 59.8849 59.8617 59.2305 59.2138 58.5954C58.6599 58.0532 57.9328 57.6459 57.2741 57.2466C56.4242 56.732 55.4706 56.5041 54.5509 56.1611C53.79 55.8772 53.0279 55.6861 52.2324 55.5345C50.1306 55.1338 47.9782 55.2619 45.8618 55.4797C44.6948 55.6 43.5247 55.7282 42.3849 56.0119C41.3068 56.2802 40.2501 56.6289 39.2237 57.0549C37.0652 57.9525 35.1103 59.1722 33.1598 60.4397C32.6851 60.7487 32.2156 61.0619 31.7802 61.425C31.3198 61.8087 30.9149 62.2476 30.4887 62.6673C29.9844 63.1648 29.44 63.6191 28.932 64.1123C27.5158 65.488 26.0464 67.4694 24.9452 69.0891C23.7627 70.8277 23.0308 72.3207 22.0207 74.1657C20.9775 76.0628 20.1579 78.0746 19.5783 80.1606C19.2628 81.3015 19.0033 82.4601 18.7932 83.6255C18.6989 84.1471 18.2343 86.2984 18.1463 86.8663C17.9712 87.988 17.9641 89.1169 17.968 90.2495C17.9722 91.2883 18.0046 92.3294 18.1094 93.3635C18.3397 95.621 18.9204 97.8249 19.9716 99.8454C20.4201 100.72 20.9264 101.564 21.4873 102.371C22.122 103.275 22.7759 104.179 23.5864 104.936C25.1187 106.368 26.8624 107.376 28.7362 108.297C30.6407 109.234 32.6249 109.759 34.7214 110.054C35.294 110.134 35.8679 110.206 36.4428 110.267C36.6836 110.292 38.5943 110.131 38.7477 110.121C39.0486 110.102 39.3442 110.031 39.6454 110.026C40.2135 110.011 40.7648 110.218 41.1832 110.602C41.4174 110.812 41.6717 111.622 41.6618 111.886C41.6491 112.224 41.6566 112.535 41.55 113.145C41.4676 113.613 41.2466 113.956 41.1376 114.178C41.0371 114.383 40.8852 114.632 40.8889 114.867C40.8969 115.308 41.2952 115.9 42.0995 114.818C42.2773 114.579 44.0536 112.207 44.7614 111.253C45.4977 110.26 46.0914 109.264 46.7705 108.232C47.0916 107.745 48.5278 105.892 48.8935 105.397C49.1503 105.049 49.6661 104.258 49.8075 103.819C49.9371 103.415 49.3069 103.119 48.8271 103.253C48.3881 103.375 47.9694 103.843 47.6107 104.113C47.1414 104.465 46.6415 104.781 46.1449 105.094C45.1725 105.709 44.1528 106.374 43.0523 106.727C41.9304 107.089 40.7743 107.335 39.6023 107.459C38.4035 107.583 37.3056 107.695 36.1038 107.666C34.9364 107.637 33.9483 107.636 32.8096 107.347C32.5501 107.281 31.9447 107.049 31.7298 106.893C31.5118 106.734 31.3167 106.492 31.1447 106.287C30.7996 105.875 30.5196 105.409 30.2596 104.941C29.8217 104.164 29.4273 103.362 29.0783 102.54C28.2354 100.522 27.7516 98.2295 27.6864 96.0462C27.617 93.736 28.1078 91.4386 28.5562 89.1861C28.9865 87.0301 29.5916 84.9542 30.4377 82.9247C31.2479 80.981 32.0662 79.3169 33.2432 77.5816C33.9974 76.4693 34.8862 75.2971 35.619 74.1707C36.8084 72.3409 38.354 70.5614 39.7421 68.873C40.9989 67.3446 42.3063 65.8805 43.7461 64.5185C45.3454 63.0057 46.9694 61.5161 48.7874 60.262C49.6842 59.6436 50.6074 59.0304 51.6349 58.6512C52.0967 58.4811 52.5786 58.3044 53.0714 58.2588C53.6267 58.2085 54.1777 58.2393 54.7287 58.3181C55.2804 58.3972 55.8782 58.4858 56.3897 58.7129C56.8774 58.9298 57.3568 59.1795 57.8174 59.4466C58.5448 59.8701 59.1878 60.6584 59.7477 61.2837C60.3487 61.9555 60.8188 62.7158 61.2845 63.4819C61.6981 64.1617 62.1066 64.8422 62.4766 65.5475Z" fill="black"/>
<path fill-rule="evenodd" clip-rule="evenodd" d="M79.9172 95.2484C79.5695 96.4278 79.1448 97.5567 78.5941 98.6571C77.8875 100.068 77.139 101.473 76.2713 102.791C75.7733 103.547 75.3781 104.364 74.8839 105.122C74.4051 105.858 73.8565 106.531 73.2716 107.186C72.2332 108.348 71.1388 109.467 69.7666 110.234C68.324 111.039 67.1456 111.118 65.1433 111.058C63.774 110.836 62.1471 110.379 61.4319 109.032C60.5607 107.39 60.6409 105.412 60.9377 103.634C61.1545 102.335 61.4254 101.015 61.9583 99.8036C62.6326 98.2693 63.3868 96.8055 64.2355 95.3624C65.8127 92.6812 67.5312 90.0318 69.734 87.82C70.9334 86.6151 72.3478 85.6486 73.8449 84.8491C74.5869 84.4529 75.3574 84.0718 76.2038 83.9697C76.5658 83.9264 76.9604 83.899 77.3106 84.0193C77.5121 84.088 77.7854 84.1976 77.9694 84.3031C78.0224 84.3335 78.7609 84.8519 78.9031 84.9956C79.0728 85.1656 79.2318 85.5053 79.3427 85.7178C79.546 86.106 79.6876 86.4715 79.8417 86.8802C80.141 87.6747 80.2358 88.5008 80.334 89.3478C80.4471 90.3163 80.3885 91.3145 80.3524 92.2862C80.3188 93.2867 80.1728 94.2803 79.9172 95.2484ZM80.3291 109.286C81.6564 108.04 82.7936 106.665 83.9103 105.229C84.8769 103.984 85.7748 102.741 86.4579 101.318C86.8822 100.431 87.3253 99.5184 87.6712 98.5985C88.0009 97.7222 88.1915 96.8051 88.3408 95.8784C88.625 94.1193 88.5489 92.2991 88.0327 90.5918C87.7407 89.6423 87.4003 88.7084 87.0129 87.7939C86.6723 86.9813 86.2207 86.2389 85.7082 85.52C85.2535 84.8915 84.7342 84.3125 84.1587 83.7927C83.4996 83.1928 82.8666 82.664 82.1101 82.1954C81.3429 81.7204 80.5336 81.1296 79.6824 80.8232C78.8792 80.5341 78.0256 80.2804 77.1846 80.1383C76.2576 79.9757 75.3154 79.9148 74.3748 79.9567C73.9296 79.9755 73.4194 79.9968 72.9727 80.0192C72.5074 80.0431 72.0444 80.1195 71.5884 80.2133C69.7482 80.5905 67.9079 81.3226 66.2472 82.1919C65.4245 82.623 64.488 83.059 63.7245 83.5877C62.9754 84.107 62.283 84.5266 61.5207 85.0321C60.0899 85.9788 58.7908 87.14 57.6493 88.4219C56.63 89.5665 55.7576 90.5893 55.0617 91.8309C54.5435 92.7544 54.2338 93.6896 53.9202 94.6378C53.6244 95.5333 53.418 96.4551 53.2896 97.3903C53.0608 99.0604 52.888 100.712 52.9234 102.395C52.9439 103.349 53.1579 104.364 53.3334 105.303C53.4882 106.134 53.7914 106.926 54.1704 107.679C54.5594 108.453 55.0114 109.243 55.5756 109.904C56.2069 110.643 56.9395 111.24 57.7269 111.806C58.4608 112.335 59.232 112.839 60.0456 113.237C60.4714 113.445 61.1805 113.747 61.6351 113.878C62.0216 113.989 63.3332 114.387 63.757 114.487C64.2629 114.605 64.906 114.739 65.419 114.819C66.4025 114.973 67.2182 114.95 68.2105 114.825C69.1773 114.704 70.1191 114.472 71.0502 114.189C71.5172 114.047 71.9704 113.871 72.4357 113.723C72.859 113.588 73.2839 113.466 73.6852 113.288C74.0102 113.143 74.3638 112.983 74.6985 112.861C75.1453 112.699 75.535 112.506 75.9611 112.297C76.8164 111.88 77.6175 111.359 78.3917 110.809C79.0569 110.336 79.7317 109.846 80.3291 109.286ZM144.026 96.039C144.547 96.2138 144.923 96.4198 145.254 96.8665C145.573 97.2966 145.81 97.7586 145.758 98.3126C145.652 99.4399 145.338 100.614 145.007 101.694C144.855 102.191 144.646 102.647 144.453 103.127C144.38 103.307 144.305 103.508 144.406 103.693C144.505 103.873 144.702 103.929 144.888 103.85C145.282 103.684 145.591 103.09 145.822 102.751C145.944 102.572 147.984 99.5651 148.691 98.5473C149.073 97.9915 149.474 97.449 149.894 96.9207C150.141 96.6126 150.448 96.3007 150.583 95.922C150.754 95.4379 150.551 94.9159 150.141 94.6371C149.453 94.169 145.686 93.7364 144.685 93.5861C143.802 93.4537 140.023 92.7948 139.011 92.6136C137.96 92.4266 136.92 92.1735 135.861 92.0297C134.765 91.8823 133.685 91.68 132.591 91.5167C131.454 91.3471 130.324 91.1521 129.2 90.9128C128.708 90.8077 128.226 90.71 127.723 90.6817C127.511 90.6694 126.755 90.6633 126.607 90.8616C126.125 91.5012 127.561 91.6702 127.694 92.0914C127.79 92.3946 127.5 92.9347 127.381 93.2182C127.197 93.6582 127.032 94.1076 126.79 94.5208C126.304 95.3519 125.875 96.226 125.356 97.0364C124.941 97.6821 124.501 98.3216 124.126 98.9925C123.959 99.2907 123.802 99.5939 123.634 99.891C123.645 99.8865 123.655 99.8814 123.665 99.8757C123.235 100.528 122.895 101.238 122.481 101.901C122.006 102.663 121.484 103.394 121.018 104.163C120.378 105.222 119.765 106.296 119.178 107.385C118.803 108.079 118.46 108.785 118.107 109.489C117.754 110.196 117.35 110.877 116.995 111.584C116.515 112.539 114.026 116.983 113.196 118.205C112.793 118.797 112.454 119.425 112.016 119.993C111.459 120.721 110.685 121.081 109.841 121.371C109.574 121.463 109.283 121.513 109.049 121.681C108.714 121.92 108.702 122.318 109.04 122.553C109.343 122.763 109.746 122.822 110.099 122.898C110.446 122.973 110.795 123.043 111.141 123.121C112.023 123.32 119.663 124.38 119.997 124.416C120.191 124.437 120.384 124.488 120.577 124.516C120.824 124.553 121.106 124.596 121.343 124.49C121.709 124.326 121.79 123.895 121.579 123.572C121.396 123.292 121.086 123.133 120.873 122.883C120.592 122.552 120.561 122.128 120.652 121.715C120.727 121.377 128.623 107.484 128.659 107.418C128.677 107.307 128.731 107.286 128.821 107.354C129.023 107.354 129.297 107.506 129.49 107.568C129.669 107.625 129.847 107.682 130.027 107.737C130.317 107.826 130.609 107.907 130.901 107.989C131.379 108.123 131.886 108.224 132.333 108.441C132.661 108.601 132.961 108.86 132.967 109.248C132.972 109.614 132.879 109.976 132.84 110.338C132.805 110.659 132.462 112.011 133.048 111.97C133.43 111.943 133.743 111.32 133.906 111.035C134.088 110.716 134.278 110.401 134.454 110.077C135.288 108.539 136.356 107.149 137.16 105.589C137.276 105.367 137.685 104.762 137.508 104.502C137.294 104.186 136.823 104.712 136.661 104.857C136.017 105.433 135.371 106.062 134.602 106.465C134.24 106.655 133.823 106.813 133.42 106.881C133.057 106.941 132.726 106.833 132.379 106.744C131.995 106.646 131.609 106.548 131.225 106.445C130.641 106.29 130.076 106.101 129.493 105.921C129.895 105.308 131.604 102.156 131.767 101.834C132.268 100.845 132.864 99.8954 133.425 98.9405C133.766 98.3595 134.062 97.7525 134.369 97.1535C134.617 96.6689 134.868 96.1222 135.197 95.6906L135.166 95.7157C135.349 95.4414 135.587 94.936 135.866 94.7674C136.129 94.6088 136.511 94.5714 136.808 94.5513C137.194 94.5232 137.582 94.5381 137.964 94.5957C138.344 94.6557 138.721 94.7872 139.099 94.8641C139.923 95.0332 140.741 95.1696 141.553 95.3894C142.375 95.6121 143.207 95.8044 144.026 96.0384L144.026 96.039ZM115.503 89.877C116.162 90.1008 116.756 90.5618 117.234 91.0618C117.487 91.3267 117.723 91.6225 117.879 91.9567C117.969 92.1512 118.004 92.2563 117.957 92.4721L117.923 92.6262C117.799 93.2075 116.846 95.5621 116.663 95.8208C116.382 96.2165 115.739 96.9594 116.294 97.405C116.834 97.8394 117.398 97.1036 117.685 96.7134C118.332 95.8342 118.873 94.8531 119.482 93.946C119.701 93.6201 119.887 93.2724 120.143 92.9762C120.315 92.7772 120.473 92.5652 120.633 92.3559C120.972 91.9096 121.261 91.4269 121.619 90.996C121.953 90.593 122.692 89.927 122.49 89.3357C122.31 88.8152 121.66 88.7031 121.195 88.6306C120.643 88.5443 120.09 88.54 119.541 88.4382C118.979 88.333 118.412 88.265 117.847 88.1847C117.076 88.0743 116.307 87.9989 115.543 87.8488C115.168 87.7739 114.792 87.7037 114.416 87.6283C112.409 87.224 110.367 86.9725 108.353 86.5997C106.207 86.2026 104.026 85.9699 101.898 85.4695C100.761 85.2023 99.5108 84.7909 98.3228 84.8944C98.0692 84.9168 97.682 84.9674 97.7174 85.3102C97.7471 85.595 98.0558 85.6805 98.2038 85.8752C98.4666 86.2192 98.6986 86.7638 98.6693 87.1946C98.637 87.6709 98.5874 88.1368 98.3587 88.5644C98.1584 88.9389 97.9476 89.3084 97.7334 89.6758C97.2995 90.421 96.881 91.1696 96.4222 91.9006C95.8733 92.7761 95.3757 93.6794 94.8085 94.5449C94.0386 95.7204 93.2395 96.8682 92.5255 98.0788C91.2491 100.245 89.9554 102.396 88.6354 104.535C88.1023 105.399 82.2451 114.616 81.6259 115.253C81.1125 115.78 80.4314 115.757 79.7692 115.938C79.5035 116.011 79.1677 116.108 79.1075 116.426C79.0389 116.791 79.4056 116.922 79.6848 116.993C80.0865 117.093 80.4991 117.124 80.9058 117.192C81.5606 117.301 89.3633 118.889 89.8932 119.003C90.3866 119.109 91.2422 119.366 91.5757 119.248C91.8259 119.158 91.9252 118.891 91.8463 118.638C91.7651 118.378 91.5169 118.235 91.3036 118.094C91.1222 117.974 90.9329 117.859 90.8352 117.657C90.6583 117.295 90.6898 116.834 90.7916 116.458C90.9508 115.872 91.2167 115.283 91.5164 114.755C91.8547 114.161 92.1918 113.566 92.552 112.984C92.8984 112.425 93.773 110.971 93.8225 110.905C93.9016 110.802 94.2924 110.195 94.4241 110.004C95.1588 108.942 95.8205 107.841 96.5242 106.759C96.9744 106.066 98.3585 104.103 98.5755 103.801C98.9275 103.312 99.2392 102.653 99.7929 102.376C99.9697 102.287 100.266 102.033 100.447 102.001C100.631 101.969 100.94 102.107 101.12 102.143C101.383 102.196 101.65 102.24 101.915 102.291C102.357 102.376 102.794 102.481 103.236 102.564C103.418 102.599 103.601 102.632 103.782 102.67L104.013 102.72C104.138 102.746 104.553 102.756 104.627 102.847C104.684 102.918 104.649 103.205 104.645 103.311C104.64 103.462 104.616 103.603 104.569 103.747C104.462 104.071 104.271 104.348 104.113 104.646C103.957 104.938 103.331 106.074 104.024 106.072C104.62 106.071 105.276 105.347 105.631 104.933C105.938 104.573 106.23 104.19 106.505 103.803C106.85 103.308 107.178 102.801 107.489 102.283C107.881 101.645 108.339 100.991 108.516 100.25C108.629 99.7789 108.605 98.861 107.933 99.3696C107.396 99.7778 107.066 100.424 106.488 100.783L106.539 100.761C106.199 100.951 105.886 101.184 105.556 101.39L105.583 101.38C105.505 101.425 105.429 101.478 105.347 101.517C105.126 101.622 104.832 101.601 104.59 101.591C104.268 101.576 103.936 101.482 103.614 101.429C102.796 101.296 101.728 101.231 101.225 100.481C101.188 100.426 101.152 100.37 101.116 100.314C101.029 100.181 100.993 100.157 101.045 100.012C101.139 99.751 101.357 99.4881 101.496 99.2475C101.69 98.9101 101.882 98.5736 102.058 98.2269C102.423 97.5111 102.791 96.7991 103.17 96.0908C104.148 94.2648 105.167 92.4344 106.469 90.816C107.012 90.1431 107.558 89.48 108.118 88.8221C108.242 88.6765 108.299 88.5749 108.48 88.562C108.577 88.5546 108.681 88.5714 108.779 88.5741C109.264 88.5886 109.738 88.6067 110.218 88.6844C111.82 88.9456 113.398 89.3072 114.971 89.7167L114.903 89.6927C115.104 89.7528 115.305 89.8115 115.503 89.8776L115.503 89.877ZM164.894 121.723C164.912 121.584 164.859 121.451 164.705 121.417C164.591 121.393 164.169 120.801 163.395 121.821C162.671 122.776 158.277 125.733 156.997 126.364C156.259 126.73 155.501 127.052 154.726 127.33C154.024 127.58 153.335 127.782 152.58 127.759C151.889 127.738 151.192 127.625 150.512 127.51C149.656 127.366 147.987 127.107 148.015 127.098C147.677 126.962 147.13 126.851 146.827 126.531C146.699 126.396 146.712 125.956 146.712 125.776C146.713 124.981 147.267 124.241 147.549 123.519C147.778 122.932 148.103 122.392 148.394 121.835C148.791 121.076 152.455 115.148 152.697 114.689C152.942 114.224 153.217 113.772 153.482 113.318C153.555 113.195 153.616 113.014 153.74 112.978C153.866 112.941 154.083 113 154.223 113.009C154.748 113.039 155.269 113.118 155.789 113.192C156.249 113.258 156.704 113.36 157.151 113.484C157.337 113.536 157.514 113.561 157.639 113.689C157.796 113.85 157.848 114.062 157.833 114.283C157.803 114.765 157.6 115.288 157.448 115.745C157.33 116.1 157.175 116.44 157.055 116.793C156.941 117.126 156.686 117.585 156.854 117.93C157.029 118.289 157.437 118.232 157.709 118.031C158.301 117.592 158.686 116.772 159.07 116.156C159.531 115.42 160.005 114.696 160.47 113.963C161.234 112.761 162.174 111.633 162.787 110.343C162.919 110.065 163.209 109.499 163.049 109.188C162.857 108.816 162.377 109.133 162.151 109.287C161.351 109.828 160.808 110.639 160.094 111.272C159.744 111.584 159.305 111.866 158.845 111.971C158.373 112.078 157.909 111.973 157.445 111.875C156.847 111.746 156.243 111.648 155.642 111.532C155.313 111.469 154.983 111.424 154.651 111.381C155.443 110.238 159.031 105.358 160.025 104.028C160.472 103.433 160.887 102.813 161.341 102.224C161.814 101.609 162.252 100.944 162.769 100.367C163.037 100.066 163.817 99.2152 164.052 99.0911C164.15 99.0382 164.752 99.0602 164.868 99.047C165.022 99.0293 165.254 99.1068 165.406 99.1306C166.226 99.26 167.049 99.3859 167.865 99.5361C168.664 99.6783 169.453 99.8735 170.226 100.12C171.236 100.449 172.409 100.966 172.798 102.046C172.968 102.52 172.963 103.012 172.965 103.509C172.966 104.041 172.918 104.566 172.751 105.074C172.486 105.885 172.188 106.681 171.977 107.509C171.878 107.901 171.092 109.601 171.986 109.57C172.494 109.552 172.819 108.876 173.106 108.543C173.414 108.184 173.652 107.768 173.872 107.337C174.299 106.502 174.882 105.751 175.421 104.988C175.852 104.375 176.245 103.714 176.637 103.075C177.082 102.349 177.543 101.597 177.774 100.771C177.891 100.353 177.993 99.8032 177.644 99.4674C177.347 99.1814 175.006 98.9068 174.268 98.7814C173.449 98.643 172.633 98.4914 171.811 98.3694C171.481 98.3201 164.065 97.0083 163.077 96.8106C162.201 96.6349 156.927 95.433 156.489 95.2856C156.263 95.2099 155.799 94.972 155.644 95.3071C155.603 95.3948 155.585 95.4919 155.594 95.5886C155.609 95.6136 155.651 95.7571 155.684 95.8076C155.806 95.9958 156.004 96.3876 156.025 96.5121C156.062 96.741 156.077 96.9688 156.055 97.1996C156.023 97.5728 155.833 97.7712 155.613 98.0561C155.187 98.6049 154.754 99.1477 154.342 99.7075C153.417 100.963 152.576 102.274 151.7 103.563C150.744 104.97 149.688 106.308 148.753 107.728C148.06 108.78 147.438 109.896 146.828 110.998C146.371 111.822 145.82 112.575 145.305 113.362C144.895 113.996 144.505 114.642 144.135 115.3C143.693 116.078 143.234 116.847 142.66 117.536C142.298 117.97 139.346 122.839 139.035 123.462C138.889 123.764 138.729 124.059 138.557 124.347C138.37 124.652 138.2 125.1 137.852 125.254C137.388 125.456 136.918 125.644 136.442 125.818C136.163 125.92 135.843 125.994 135.635 126.221C135.343 126.539 135.454 126.96 135.834 127.126C136.444 127.392 137.21 127.392 137.868 127.463C138.562 127.538 139.243 127.661 139.927 127.795C141.189 128.041 150.209 129.557 151.8 129.748C152.492 129.831 153.181 129.918 153.864 130.059C154.589 130.209 155.32 130.287 156.035 130.481C156.959 130.729 157.892 130.941 158.833 131.115C159.186 131.182 159.509 131.147 159.821 130.95C160.122 130.76 160.718 129.652 160.854 129.385C161.048 129.004 162.107 126.765 162.526 126.071C163.01 125.27 164.861 122.001 164.894 121.723ZM90.5403 66.3817C90.0255 67.798 88.6374 68.7235 87.1795 68.9709C86.6537 69.0602 86.1775 69.004 85.6548 68.9616C85.2357 68.9277 84.807 68.9657 84.3926 68.9099C83.9576 68.8515 83.5228 68.7806 83.0843 68.7499C83.8577 67.8019 84.5125 66.7449 85.2255 65.7503C85.8188 64.9233 86.3965 64.0057 87.2192 63.3818C87.5717 63.114 88.1416 62.8169 88.5888 62.8796C89.1125 62.9523 89.5551 63.0813 89.9911 63.3852C90.4339 63.6946 90.7218 64.078 90.7905 64.6208C90.8669 65.2223 90.7153 65.8085 90.5403 66.3817ZM86.7939 72.0443C86.5119 72.8276 86.149 73.5793 85.7109 74.2873C85.2396 75.0445 84.5399 75.6943 83.6848 75.9732C82.8694 76.2381 81.8978 76.3217 81.0461 76.2511C80.2892 76.1881 79.5522 75.9535 78.8021 75.8376C79.465 74.4832 80.2458 73.1533 81.0595 71.8848C81.4772 71.2332 81.8158 70.5262 82.249 69.8893C82.3474 69.7453 82.4183 69.5609 82.5753 69.5351C82.692 69.516 82.8981 69.5838 83.0195 69.6015C83.5547 69.683 84.0915 69.7533 84.6296 69.8122C85.1753 69.8701 85.9225 69.8672 86.344 70.2641C86.8615 70.7518 86.9785 71.3781 86.7939 72.0443ZM94.4235 65.5108C94.3824 65.213 94.3389 64.9039 94.1932 64.6433C94.0484 64.3727 93.8869 64.1114 93.7098 63.8609C93.335 63.3499 92.6994 63.0811 92.1212 62.8765C91.377 62.6133 87.6664 61.9557 87.1604 61.8616C86.5876 61.7539 86.0179 61.6369 85.4438 61.5411C84.693 61.4166 83.9497 61.2546 83.1942 61.1588C82.8963 61.1208 81.7875 60.847 82.1244 61.4207C82.1506 61.466 82.1966 61.5034 82.2273 61.5617C82.2703 61.6396 82.29 61.7422 82.3201 61.826C82.3647 61.9498 82.412 62.0719 82.4602 62.1936C82.5772 62.4927 82.6239 62.6577 82.4697 62.9505C82.201 63.4617 81.7817 63.9141 81.432 64.3696C81.2163 64.6495 81.0015 64.9289 80.787 65.2093C80.4162 65.6931 80.0601 66.1815 79.7233 66.6895C79.1735 67.5188 78.56 68.2995 78.0052 69.124C77.4055 70.0153 76.8413 70.939 76.2094 71.8082C75.6725 72.5453 75.0945 73.2533 74.5588 73.9908C74.3737 74.2468 74.2112 74.5188 74.0419 74.7853C73.7497 75.2445 73.2253 75.2857 72.7713 75.4966C72.5781 75.5864 72.5247 75.8085 72.7292 75.9251C72.8313 75.9836 73.0313 75.9975 73.1474 76.0164C73.5708 76.0862 73.9997 76.1165 74.4237 76.1762L74.7918 76.2264C74.8366 76.2326 74.9042 76.2286 74.9438 76.2474C75.0452 76.2959 76.4914 76.5443 76.7456 76.5911C76.9819 76.6356 78.7703 76.9175 78.9936 76.9547C79.2825 76.9997 79.5697 77.0544 79.8548 77.1189C80.7295 77.3255 81.5874 77.5565 82.4771 77.6933C83.7474 77.8888 85.0615 78.1925 86.3526 78.1486C86.8794 78.1258 87.4036 78.0619 87.9205 77.9575C88.1981 77.9031 88.4584 77.8159 88.6829 77.6399C88.776 77.5675 89.0052 77.4469 89.0769 77.3519C89.1475 77.2613 89.5233 76.815 89.6776 76.6496C89.8651 76.4482 89.966 76.1722 90.1128 75.9391C90.3343 75.5878 90.4981 75.166 90.6352 74.7779C91.084 73.5097 91.3163 72.1981 90.5667 70.9938C90.2699 70.5171 89.8522 70.1885 89.3501 69.945C89.7367 69.9339 90.1655 69.8095 90.5322 69.7097C91.2249 69.5219 91.9014 69.1794 92.4998 68.7859C93.5495 68.0949 94.6146 66.8664 94.4229 65.5105L94.4235 65.5108ZM113.015 66.4199C113.182 66.325 113.335 66.1374 113.28 65.9355C113.222 65.7257 112.996 65.7469 112.811 65.7026C112.314 65.5852 110.923 65.3679 110.812 65.3315C110.548 65.2441 110.17 65.2077 109.903 65.1321C109.495 65.0164 108.936 64.8821 108.511 64.9956C108.144 65.093 108.054 65.4109 108.329 65.7065C108.649 66.0511 109.227 66.086 109.591 66.3844C110.124 66.8206 109.365 67.814 109.137 68.2784C108.892 68.7769 106.362 72.8075 105.745 73.6857C105.181 74.4898 104.656 75.3087 103.992 76.037C103.294 76.8025 102.523 77.4839 101.624 78.0043C100.824 78.4683 99.7327 78.9635 98.8062 78.5753C98.5892 78.4802 98.3913 78.3466 98.2219 78.181C98.1451 78.1084 98.0698 78.0342 97.9962 77.9584C97.9217 77.8831 97.7961 77.1455 97.8355 77.0062C97.901 76.775 97.9702 76.5447 98.0433 76.3153C98.3086 75.4833 98.7544 74.5139 99.1409 73.6606C99.5369 72.7853 99.9488 71.9101 100.395 71.0591C100.978 69.9462 101.625 68.8658 102.251 67.7756C102.44 67.444 102.654 67.1299 102.863 66.8104C103.075 66.4856 103.285 66.0849 103.63 65.8788C104.025 65.6423 105.744 65.5646 105.283 64.7378C105.12 64.4459 104.75 64.4018 104.456 64.3333C104.196 64.2729 103.926 64.2366 103.653 64.1688C102.812 63.9598 101.94 63.8751 101.088 63.7171C100.463 63.6015 99.8725 63.4491 99.2409 63.3719C99.0304 63.3461 98.4147 63.1863 98.3517 63.5235C98.3357 63.6096 98.3813 63.6774 98.3679 63.7625C98.3538 63.8473 98.6759 64.2424 98.8124 64.3726C98.8744 64.4324 99.061 64.6106 99.0893 64.6402C99.1368 64.6913 99.1704 64.8009 99.186 64.8657C99.2254 65.0263 99.2004 65.0469 99.1073 65.1987L99.1394 65.1587C98.5152 66.089 97.9369 67.0493 97.4066 68.0362C97.085 68.6373 96.7864 69.2505 96.4551 69.8463C96.2046 70.2987 95.9288 70.738 95.6943 71.1989C95.1432 72.2866 94.5957 73.4133 94.1511 74.5488C93.905 75.1762 93.6984 75.8488 93.7794 76.5301C93.8581 77.1911 94.2017 77.757 94.6997 78.1896C95.1264 78.5614 95.6119 78.8442 96.1207 79.0898C96.4491 79.2472 96.7787 79.3238 97.1023 79.4723C97.3568 79.5889 98.1399 79.7919 98.2621 79.8022C98.4365 79.8161 98.6083 79.8569 98.7841 79.8672C99.1341 79.888 99.5313 79.9507 99.8805 79.9133C100.559 79.8404 101.227 79.7908 101.856 79.5219C103.891 78.6553 106.211 75.854 107.468 73.4396C107.856 72.6959 108.262 71.9611 108.661 71.224C109.057 70.492 109.534 69.8069 109.895 69.0546C110.051 68.7298 110.203 68.4034 110.357 68.0772L110.622 67.5288C110.683 67.4005 110.847 67.0212 110.962 66.9317C111.147 66.7866 111.547 66.8476 111.789 66.8016C112.215 66.7227 112.636 66.6378 113.015 66.4205L113.015 66.4199ZM131.132 69.7198C130.973 69.2993 130.195 69.2861 129.834 69.2124C129.251 69.0933 128.668 68.9719 128.079 68.8846C127.546 68.8048 127.037 68.7261 126.512 68.6008C126.112 68.5048 125.714 68.4028 125.31 68.325C123.707 68.0179 122.071 67.8825 120.466 67.5755C120.059 67.4977 119.651 67.4196 119.244 67.3404C118.46 67.187 117.677 67.1374 116.888 67.0406C116.389 66.9786 115.891 66.912 115.392 66.8568C115.179 66.8338 114.967 66.7781 114.766 66.8578C114.562 66.9378 114.361 67.105 114.198 67.2503C113.993 67.4349 113.84 67.6282 113.681 67.852C113.517 68.0824 113.275 68.2544 113.096 68.4849C112.881 68.7609 112.515 69.4129 113.096 69.5287C113.396 69.5894 113.719 69.3445 113.962 69.1988C114.2 69.0559 114.431 68.9034 114.659 68.747C115.213 68.3688 115.728 68.0238 116.411 67.9772C117.039 67.9331 117.684 68.035 118.3 68.1421C118.594 68.1932 118.887 68.2508 119.181 68.3001C119.338 68.3262 119.963 68.337 120.032 68.4649C119.936 68.898 119.494 69.3141 119.217 69.6499C118.861 70.0855 118.521 70.5333 118.196 70.9923C117.547 71.8986 116.919 72.8223 116.299 73.7493C115.713 74.6244 115.145 75.5117 114.597 76.4107C114.393 76.746 114.175 77.0732 113.969 77.407C113.785 77.7057 112.498 79.6578 112.047 80.3334C111.749 80.7786 111.379 81.1567 110.858 81.3224C110.474 81.444 109.999 81.4371 109.705 81.7526C109.279 82.2073 109.766 82.573 110.207 82.6695C110.739 82.7855 111.304 82.8073 111.845 82.8516C112.782 82.9289 113.723 83.0522 114.647 83.2296C115.33 83.3611 116.006 83.5271 116.692 83.645C117.059 83.7084 117.418 83.8239 117.787 83.8791C118.303 83.957 118.75 83.6114 118.509 83.0622C118.369 82.7457 117.94 82.4836 117.857 82.1583C117.759 81.7759 118.034 81.3529 118.211 81.0414C118.473 80.5798 118.765 80.1443 119.05 79.6967C119.794 78.5282 120.515 77.3433 121.3 76.2022C122.296 74.7524 123.35 73.3372 124.285 71.8454C124.539 71.4397 124.807 71.0458 125.101 70.6681C125.276 70.4451 125.455 70.2248 125.637 70.0073C125.724 69.902 125.884 69.6047 126.02 69.5485C126.068 69.5278 126.151 69.5627 126.21 69.5765C126.506 69.6457 126.804 69.706 127.101 69.7701C127.56 69.8697 128.008 69.9729 128.472 70.0385C128.734 70.074 128.991 70.1371 129.24 70.2269C129.448 70.304 129.488 70.3784 129.494 70.6057C129.504 71.0372 129.263 71.4598 129.208 71.8885C129.147 72.3624 129.543 72.735 129.837 72.2369C130.096 71.7983 130.379 71.367 130.637 70.924C130.814 70.6207 131.283 70.1013 131.132 69.7198ZM154.646 74.1846C154.741 74.4149 154.789 74.6432 154.808 74.8916C154.825 75.1108 154.773 75.4329 154.928 75.6137C155.288 76.0315 155.692 75.2911 155.88 75.0615C156.134 74.7517 156.764 74.1691 156.653 73.7213C156.593 73.4829 156.382 73.4743 156.182 73.4269C155.911 73.365 155.647 73.2686 155.378 73.1981C154.23 72.8994 143.436 71.2293 142.329 71.0726C142.126 71.0445 141.923 71.0161 141.721 70.9778C141.68 70.9698 141.588 70.962 141.546 70.9422C141.5 70.9188 140.98 70.8592 140.85 70.9007C140.647 70.9652 140.477 71.0147 140.435 71.2569C140.39 71.5247 140.593 71.7432 140.798 71.8809C140.904 71.9513 141.234 72.058 141.271 72.1667C141.318 72.3083 141.085 72.6888 141.025 72.8153C140.89 73.1047 140.752 73.3902 140.632 73.6869C139.849 75.5951 138.72 77.3473 137.674 79.1162C137.377 79.6186 137.139 80.1531 136.834 80.6495C136.537 81.1332 136.245 81.6198 135.954 82.1067C135.7 82.5304 135.443 82.9618 135.156 83.3633C134.995 83.5878 134.464 84.474 134.291 84.6925C134.088 84.9496 133.931 85.0188 133.617 85.0926C133.37 85.1504 133.116 85.2098 132.885 85.3178C132.464 85.5164 132.214 85.9745 132.744 86.2062C133.203 86.4075 133.732 86.4684 134.213 86.6036C134.557 86.7007 139.36 87.3222 139.387 87.34C139.59 87.4633 139.832 87.417 139.932 87.1836C140.087 86.8204 139.734 86.5373 139.473 86.3567C139.321 86.2518 139.193 86.2113 139.188 86.0333C139.182 85.8201 139.447 85.4723 139.545 85.2897C139.796 84.8223 140.055 84.3617 140.318 83.9011C140.685 83.2575 141.071 82.6268 141.459 81.9962C141.878 81.3171 142.29 80.6371 142.698 79.9517C142.803 79.7746 142.913 79.6 143.025 79.4279C143.07 79.3585 143.139 79.1966 143.204 79.1542C143.304 79.0894 143.504 79.1597 143.637 79.1811C144.244 79.2811 144.853 79.3653 145.46 79.4666C146.004 79.5562 146.551 79.6342 147.099 79.7008C147.466 79.7673 146.881 80.5595 147.182 80.6984C147.497 80.8433 147.756 80.423 147.935 80.2344C148.143 80.016 149.175 78.6799 148.645 78.6315C148.324 78.6023 148.132 78.9413 147.441 78.8941C147.048 78.8675 146.755 78.7987 146.367 78.7527C145.482 78.6474 144.636 78.4215 143.78 78.183C144.087 77.709 144.408 77.246 144.704 76.7647L144.67 76.8081C145.201 76.031 145.676 75.2175 146.192 74.4301C146.578 73.8413 147.099 72.7148 147.912 72.7057C148.184 72.7021 150.831 73.0367 151.365 73.1508C151.961 73.2778 154.493 73.7272 154.546 73.7892C154.582 73.8303 154.615 74.1101 154.646 74.1846ZM166.133 77.4615C166.644 76.7975 167.578 76.9584 168.298 76.7203C168.558 76.6344 168.892 76.4767 168.96 76.1796C168.996 76.0168 168.929 75.8706 168.818 75.758C168.771 75.7097 168.675 75.6222 168.6 75.6156C168.511 75.6077 168.054 75.5673 167.899 75.5272C167.709 75.4776 164.198 75.0076 163.314 74.8796C162.5 74.7623 160.022 74.2482 159.571 74.2557C159.443 74.2583 159.093 74.1602 158.935 74.2561C158.862 74.322 158.832 74.3884 158.857 74.3499C158.81 74.4212 158.793 74.4637 158.804 74.5583C158.812 74.6214 158.881 74.7026 158.923 74.7455C159.115 74.9474 159.283 75.1378 159.492 75.3172C159.759 75.5467 159.941 75.6423 159.89 76.0381C159.838 76.4439 159.628 76.8443 159.443 77.2033C158.839 78.3755 156.066 82.9751 155.318 84.1636C154.987 84.6891 153.446 87.3689 153.119 87.6792C153.236 87.5643 153.028 87.7413 152.974 87.774C152.862 87.8434 152.74 87.9008 152.621 87.9574C152.309 88.1064 151.984 88.2 151.661 88.3212C151.366 88.4314 150.232 88.7627 150.737 89.2724C150.952 89.4892 153.937 89.9133 154.597 90.0843C155.234 90.2485 158.854 90.7742 159.156 90.8345C159.392 90.881 159.655 90.9719 159.85 90.7665C160.291 90.2972 159.511 89.9677 159.221 89.7597C159.172 89.7246 159.072 89.6716 159.033 89.6183C158.963 89.5244 158.968 89.5367 159.009 89.4043C159.034 89.3214 159.061 89.2394 159.092 89.1584C159.187 88.9046 159.314 88.6608 159.445 88.4241C159.726 87.9149 159.982 87.3923 160.286 86.8968L160.258 86.9266C160.81 86.1159 162.454 83.2138 162.81 82.6096C163.317 81.7491 163.802 80.8755 164.374 80.0565C164.968 79.2056 165.5 78.282 166.133 77.4621L166.133 77.4615ZM174.019 82.4335C174.654 81.4694 175.176 80.45 175.852 79.5117C176.132 79.1239 176.374 78.7128 176.642 78.3175C176.729 78.1897 176.811 78.0586 176.908 77.9377C176.957 77.8775 177.135 77.6324 177.221 77.5976C177.419 77.5193 177.646 77.5665 178.19 77.7878C178.7 77.9565 179.275 78.2969 179.529 78.8081C179.786 79.3245 179.676 79.9948 179.519 80.5301C179.404 80.9216 179.178 81.2327 178.945 81.5586C178.641 81.9845 178.326 82.3865 177.947 82.7472C177.722 82.96 177.485 83.1596 177.249 83.3586C177.133 83.4561 177.018 83.5529 176.9 83.6475C176.834 83.7004 176.601 83.9374 176.521 83.9326C176.389 83.9236 176.086 83.6003 175.958 83.5201C175.795 83.4183 175.597 83.2598 175.422 83.1811C174.896 82.9419 174.411 82.7998 173.894 82.6197C173.939 82.5599 173.98 82.4978 174.019 82.4335ZM181.66 92.7218C181.69 92.5529 181.659 92.327 181.47 92.2717C181.272 92.2148 181.098 92.4224 180.997 92.5638C180.742 92.9189 180.735 93.3436 180.306 93.5763C179.978 93.7538 179.414 93.8034 179.06 93.7624C178.622 93.7111 178.368 93.2447 178.212 92.8446C177.612 91.3172 178.057 89.8605 178.018 88.2911C177.988 87.0978 177.614 85.9677 177.098 84.9065C177.894 84.8251 178.69 84.6732 179.447 84.4052C180.183 84.1451 180.95 83.9506 181.646 83.5866C182.799 82.9833 183.738 82.07 183.994 80.7567L184.01 80.6645C183.97 80.8988 184.025 80.564 184.027 80.5426C184.036 80.4742 184.04 80.4054 184.041 80.3366C184.041 80.1629 184.022 79.9898 183.985 79.8203C183.902 79.4256 183.758 79.0467 183.556 78.6976C183.176 78.0626 182.519 77.7222 181.847 77.4743C181.633 77.3952 181.422 77.3169 181.195 77.2846C181.077 77.2676 180.416 77.15 180.208 77.1029C179.476 76.9409 171.611 75.6882 171.535 75.6582C171.384 75.5987 171.234 75.6421 171.077 75.684C170.771 75.7651 170.841 76.0133 171.094 76.1433C171.346 76.274 171.64 76.3355 171.899 76.4629C172.048 76.5354 172.196 76.5428 172.186 76.7092C172.178 76.8196 172.068 76.9846 172.02 77.0909C171.892 77.3816 171.743 77.6578 171.589 77.9352C171.129 78.761 170.61 79.5589 170.103 80.3546C169.668 81.0373 168.188 83.435 167.867 83.9458C167.57 84.4196 165.349 88.2343 164.89 88.9734C164.746 89.2051 164.6 89.4327 164.436 89.6501C164.295 89.8342 164.129 89.9972 163.942 90.1344C163.815 90.2264 163.735 90.2442 163.584 90.3193C163.432 90.3951 163.103 90.5339 163.126 90.7095C163.139 90.8164 163.213 90.8379 163.291 90.8686C163.411 90.9168 163.577 90.9537 163.707 90.9862C163.958 91.0492 164.218 91.0849 164.474 91.124C164.956 91.1968 167.174 91.6619 167.803 91.8137C168.13 91.8931 169.388 92.1669 169.497 91.7394C169.565 91.4704 169.258 91.3411 169.132 91.1489C168.968 90.8999 168.939 90.6605 169.004 90.368C169.129 89.8046 169.537 89.325 169.819 88.831C170.796 87.114 171.952 85.4734 173.092 83.8639C173.124 83.8202 173.155 83.7765 173.186 83.7318C173.315 83.5473 173.315 83.5157 173.491 83.6508C173.768 83.863 174.014 84.1612 174.136 84.4959C174.406 85.2366 174.25 86.0723 174.198 86.8386C174.143 87.6564 174.14 88.4696 174.136 89.2887C174.133 90.0663 174.029 90.8464 174.078 91.6227C174.127 92.392 174.328 93.167 174.802 93.7799C175.238 94.3441 175.865 94.7389 176.506 95.0294C177.227 95.357 177.958 95.3971 178.735 95.2546C179.417 95.13 180.221 94.909 180.757 94.4424C181.295 93.9751 181.529 93.3943 181.659 92.7216L181.66 92.7218Z" fill="black"/>
<path fill-rule="evenodd" clip-rule="evenodd" d="M197.563 86.7591C197.895 86.2654 198.221 85.7739 198.524 85.262C198.668 85.0195 198.808 84.771 198.941 84.5219C199.035 84.3469 199.102 84.1134 198.872 84.0034C198.638 83.8916 198.54 84.1032 198.403 84.2367C198.208 84.4293 197.495 84.6681 197.283 84.3716C197.191 84.2443 197.212 83.9326 197.199 83.7741C197.173 83.4707 197.148 83.1662 197.096 82.8659C196.968 82.1533 196.746 81.451 196.296 80.866C196.051 80.5488 195.333 80.124 194.959 79.974C194.472 79.7791 193.185 79.4042 192.827 79.348C192.326 79.2691 191.369 79.216 190.868 79.3042C190.382 79.3895 188.862 79.9934 188.463 80.3274C187.657 81.0025 187.206 81.8793 187.035 82.9063C186.832 84.1145 187.024 85.3708 187.412 86.5269C187.786 87.6418 188.195 88.8073 188.542 89.8911L188.583 90.0245C188.522 89.8412 188.585 90.0367 188.593 90.0676C188.614 90.1458 188.636 90.2251 188.656 90.304C188.695 90.4589 188.731 90.6134 188.755 90.7711C188.798 91.0649 188.799 91.3581 188.768 91.6519C188.7 92.2874 188.559 92.8994 188.228 93.4515C187.937 93.9369 187.495 94.3941 186.888 94.3971C186.211 94.4003 185.746 94.0418 185.339 93.5378C184.651 92.6855 184.161 91.6358 183.912 90.5746C183.693 89.637 183.691 88.645 183.427 87.72C183.365 87.5029 183.295 87.4064 183.077 87.5078C182.936 87.5734 182.309 88.517 182.215 88.6277C181.642 89.2979 181.138 90.0891 180.694 90.8478C180.553 91.0901 180.406 91.3295 180.257 91.5672C180.137 91.757 180.068 91.9624 179.948 92.1456C179.861 92.2777 179.741 92.3906 179.801 92.5624C179.897 92.8345 180.167 92.752 180.344 92.6375C180.571 92.4922 180.791 92.3345 181.015 92.1854C181.416 91.9192 182.042 91.4482 182.559 91.5266C182.739 91.5542 183.194 92.2332 183.364 92.4441C183.564 92.6942 183.703 93.0584 183.855 93.344C184.095 93.7906 184.417 94.2144 184.73 94.6122C184.919 94.8517 185.737 95.7009 185.885 95.7709C186.201 95.9192 186.535 96.0727 186.861 96.1946C187.853 96.5646 189.053 96.4444 190.083 96.3242C191.168 96.1981 192.243 95.6608 192.854 94.7452C193.515 93.7519 193.88 92.5607 193.71 91.3611C193.627 90.7835 193.411 90.2455 193.332 89.6708C193.244 89.0245 193.075 88.3963 192.919 87.764C192.626 86.5787 192.301 85.4323 192.147 84.2198C192.074 83.6461 191.919 82.9688 192.051 82.3949C192.179 81.8341 192.631 81.3309 193.202 81.2811C193.449 81.2598 193.832 81.2451 194.052 81.3665C194.336 81.5235 194.589 81.7056 194.81 81.9413C195.226 82.3875 195.602 82.8824 195.912 83.4158C196.449 84.3438 196.452 85.4606 196.357 86.4949C196.328 86.8088 196.284 87.1207 196.264 87.4362C196.253 87.6114 196.197 87.8533 196.274 88.0142C196.445 88.3763 196.842 87.8559 196.96 87.6715C197.155 87.3638 197.359 87.0605 197.563 86.7591ZM188.458 89.8976L188.446 89.8593L188.458 89.8976ZM217.677 84.5242C217.641 84.1964 217.313 84.0992 217.042 84.0384C216.604 83.9426 216.163 83.8566 215.723 83.7678C214.853 83.5924 210.778 82.8457 209.592 82.67C208.561 82.5173 204.692 81.791 203.764 81.7384C203.072 81.6991 202.382 81.5823 201.693 81.5063C201.39 81.4724 201.232 81.5166 200.97 81.6809C200.785 81.797 200.617 81.9534 200.466 82.111C200.316 82.2683 200.134 82.5829 200.016 82.7066C199.88 82.8492 199.509 83.2794 199.411 83.4507C199.211 83.7973 199.114 84.0098 199.478 84.1696C199.82 84.3202 200.235 83.9897 200.515 83.8181C200.89 83.5884 201.242 83.3247 201.613 83.0901C202.355 82.6208 203.107 82.599 203.954 82.6943C204.357 82.7397 206.275 82.9862 206.444 83.0929C206.625 83.2074 206.308 83.551 206.198 83.7001C205.928 84.0672 205.622 84.4047 205.341 84.7625C204.82 85.4268 204.34 86.1309 203.864 86.8277C202.942 88.1774 202.023 89.5327 201.171 90.9274C201.015 91.1833 200.852 91.4322 200.689 91.6829C200.556 91.8854 198.509 95.1998 198.032 95.6001C197.776 95.8161 197.474 95.9611 197.151 96.0397C196.831 96.1179 196.465 96.1526 196.211 96.3886C195.9 96.6774 195.991 97.0646 196.351 97.2371C196.695 97.4023 197.125 97.4085 197.497 97.4472C198.273 97.5277 202.036 98.232 203.195 98.4379C203.656 98.5192 204.709 98.8616 205.012 98.3045C205.204 97.9498 204.936 97.5828 204.721 97.3226C204.587 97.1603 204.372 96.9957 204.348 96.7825C204.286 96.2467 204.697 95.7087 204.966 95.2618C205.167 94.9281 205.394 94.6097 205.603 94.2806C206.246 93.2729 206.86 92.2363 207.539 91.2523C207.706 91.0106 207.87 90.7665 208.039 90.5269C208.483 89.8973 208.899 89.2381 209.36 88.6224C210.263 87.4169 210.985 86.0898 211.942 84.9234C212.072 84.7649 212.203 84.6075 212.334 84.4503C212.362 84.4168 212.469 84.2498 212.521 84.2276C212.674 84.1621 215.14 84.7333 215.481 84.826C215.841 84.9253 216.028 84.9717 216.006 85.3777C215.988 85.7113 215.828 86.0575 215.755 86.3845C215.698 86.6407 215.632 87.1076 215.987 87.1718C216.298 87.2275 216.455 86.7518 216.578 86.5331C216.783 86.1641 217.668 84.8645 217.677 84.5244L217.677 84.5242ZM212.562 98.6285C212.562 97.4965 211.338 96.7213 210.223 96.891C209.209 97.0458 208.209 98.5686 209.584 99.0958C209.715 99.146 210.188 99.1654 210.222 99.2994C210.271 99.4934 209.744 99.681 209.616 99.7374C209.156 99.9407 208.678 99.9263 208.195 100.047C208.021 100.09 207.791 100.217 207.91 100.422C208.002 100.58 208.362 100.688 208.527 100.746C208.962 100.902 209.424 100.973 209.886 100.957C211.241 100.902 212.554 99.9543 212.562 98.6285ZM194.561 134.138C193.667 133.569 192.457 133.844 191.672 134.46C191.238 134.801 190.866 135.22 190.904 135.797C190.935 136.272 191.151 136.713 191.536 137.003C192.325 137.595 193.744 137.42 194.381 136.698C194.977 136.024 195.55 134.766 194.561 134.138ZM194.198 126.579C194.215 126.441 194.162 126.307 194.009 126.274C193.894 126.25 193.473 125.657 192.699 126.677C191.975 127.632 187.581 130.589 186.301 131.22C185.563 131.586 184.805 131.909 184.03 132.187C183.328 132.437 182.639 132.638 181.884 132.616C181.193 132.595 180.496 132.481 179.816 132.367C178.96 132.222 177.291 131.963 177.319 131.954C176.981 131.818 176.434 131.707 176.131 131.388C176.002 131.253 176.016 130.811 176.016 130.632C176.017 129.837 176.57 129.098 176.853 128.374C177.082 127.789 177.407 127.248 177.699 126.691C178.095 125.932 181.759 120.004 182.001 119.546C182.246 119.081 182.521 118.628 182.787 118.175C182.859 118.051 182.92 117.871 183.043 117.835C183.17 117.797 183.387 117.857 183.527 117.865C184.052 117.896 184.572 117.975 185.093 118.049C185.553 118.115 186.008 118.217 186.455 118.341C186.641 118.392 186.818 118.417 186.943 118.546C187.1 118.707 187.152 118.919 187.137 119.139C187.108 119.621 186.904 120.144 186.753 120.601C186.635 120.956 186.479 121.296 186.358 121.649C186.245 121.982 185.99 122.441 186.159 122.786C186.333 123.145 186.741 123.089 187.013 122.887C187.605 122.449 187.99 121.628 188.375 121.013C188.835 120.277 189.308 119.552 189.774 118.82C190.538 117.618 191.478 116.489 192.091 115.199C192.223 114.921 192.512 114.355 192.353 114.045C192.162 113.672 191.681 113.99 191.455 114.143C190.656 114.684 190.112 115.495 189.398 116.128C189.048 116.44 188.609 116.722 188.149 116.827C187.677 116.934 187.213 116.83 186.749 116.731C186.151 116.603 185.546 116.505 184.946 116.388C184.617 116.325 184.287 116.28 183.955 116.237C184.747 115.094 188.335 110.215 189.33 108.885C189.776 108.289 190.191 107.67 190.645 107.081C191.118 106.465 191.557 105.801 192.073 105.223C192.341 104.922 193.121 104.072 193.355 103.947C193.454 103.894 194.055 103.916 194.172 103.903C194.326 103.886 194.558 103.963 194.71 103.987C195.53 104.116 196.353 104.242 197.17 104.392C197.968 104.534 198.757 104.729 199.529 104.976C200.54 105.305 201.713 105.822 202.102 106.902C202.272 107.376 202.267 107.869 202.269 108.366C202.27 108.898 202.221 109.422 202.055 109.93C201.79 110.742 201.492 111.537 201.281 112.365C201.182 112.757 200.396 114.457 201.29 114.426C201.798 114.409 202.123 113.733 202.41 113.399C202.718 113.041 202.956 112.624 203.176 112.193C203.603 111.358 204.186 110.608 204.725 109.844C205.157 109.231 205.549 108.57 205.941 107.931C206.386 107.205 206.847 106.454 207.078 105.627C207.195 105.209 207.297 104.659 206.948 104.324C206.651 104.038 204.31 103.763 203.572 103.638C202.753 103.5 201.937 103.348 201.115 103.226C200.784 103.177 193.369 101.864 192.381 101.667C191.505 101.491 186.231 100.289 185.793 100.142C185.567 100.067 185.104 99.8284 184.949 100.163C184.907 100.251 184.89 100.348 184.898 100.445C184.913 100.47 184.955 100.613 184.988 100.664C185.11 100.852 185.308 101.244 185.329 101.368C185.367 101.597 185.381 101.825 185.359 102.056C185.327 102.429 185.138 102.628 184.917 102.912C184.492 103.461 184.058 104.004 183.646 104.563C182.721 105.819 181.881 107.131 181.004 108.42C180.048 109.826 178.991 111.165 178.057 112.584C177.364 113.637 176.743 114.752 176.132 115.854C175.675 116.678 175.124 117.431 174.609 118.218C174.199 118.852 173.809 119.499 173.439 120.157C172.996 120.934 172.538 121.703 171.964 122.392C171.602 122.827 168.649 127.695 168.339 128.318C168.19 128.619 168.037 128.917 167.861 129.204C167.674 129.508 167.504 129.956 167.156 130.11C166.692 130.312 166.221 130.5 165.746 130.673C165.467 130.777 165.147 130.85 164.939 131.078C164.647 131.395 164.758 131.816 165.138 131.983C165.747 132.249 166.514 132.248 167.172 132.319C167.866 132.394 168.547 132.518 169.231 132.651C170.493 132.898 179.513 134.413 181.104 134.604C181.796 134.687 182.485 134.774 183.168 134.916C183.893 135.066 184.624 135.143 185.339 135.337C186.263 135.585 187.196 135.797 188.137 135.971C188.49 136.038 188.813 136.004 189.125 135.806C189.426 135.616 190.022 134.508 190.158 134.241C190.352 133.86 191.411 131.621 191.83 130.927C192.314 130.126 194.165 126.858 194.198 126.58" fill="black"/>
</svg>
